<svg width="256" height="256" viewBox="0 0 256 256" fill="none" xmlns="http://www.w3.org/2000/svg">
<path d="M234.665 226.667H21.332C16.9587 226.667 13.332 230.293 13.332 234.667C13.332 239.04 16.9587 242.667 21.332 242.667H234.665C239.039 242.667 242.665 239.04 242.665 234.667C242.665 230.293 239.039 226.667 234.665 226.667Z" fill="white"/>
<path d="M181.333 21.3333H74.6667C42.6667 21.3333 32 40.4266 32 63.9999V234.667H96V170.027C96 164.48 100.48 160 106.027 160H150.08C155.52 160 160.107 164.48 160.107 170.027V234.667H224.107V63.9999C224 40.4266 213.333 21.3333 181.333 21.3333ZM154.667 98.6666H136V117.333C136 121.707 132.373 125.333 128 125.333C123.627 125.333 120 121.707 120 117.333V98.6666H101.333C96.96 98.6666 93.3333 95.0399 93.3333 90.6666C93.3333 86.2933 96.96 82.6666 101.333 82.6666H120V63.9999C120 59.6266 123.627 55.9999 128 55.9999C132.373 55.9999 136 59.6266 136 63.9999V82.6666H154.667C159.04 82.6666 162.667 86.2933 162.667 90.6666C162.667 95.0399 159.04 98.6666 154.667 98.6666Z" fill="white"/>
</svg>
