<svg width="512" height="512" viewBox="0 0 512 512" fill="none" xmlns="http://www.w3.org/2000/svg">
<path d="M259.413 231.893C257.28 231.68 254.72 231.68 252.373 231.893C201.6 230.187 161.28 188.587 161.28 137.387C161.28 85.12 203.52 42.6667 256 42.6667C308.266 42.6667 350.72 85.12 350.72 137.387C350.506 188.587 310.186 230.187 259.413 231.893Z" fill="white"/>
<path d="M152.746 310.613C101.119 345.173 101.119 401.493 152.746 435.84C211.413 475.093 307.626 475.093 366.293 435.84C417.919 401.28 417.919 344.96 366.293 310.613C307.839 271.573 211.626 271.573 152.746 310.613Z" fill="white"/>
</svg>
