<svg width="512" height="512" viewBox="0 0 512 512" fill="none" xmlns="http://www.w3.org/2000/svg">
<path d="M444.373 170.88L304.64 59.0933C277.333 37.3333 234.667 37.12 207.573 58.88L67.84 170.88C47.7867 186.88 35.6267 218.88 39.8934 244.053L66.7734 404.907C72.96 440.96 106.453 469.333 142.933 469.333H369.067C405.12 469.333 439.253 440.32 445.44 404.693L472.32 243.84C476.16 218.88 464 186.88 444.373 170.88ZM272 384C272 392.747 264.747 400 256 400C247.253 400 240 392.747 240 384V320C240 311.253 247.253 304 256 304C264.747 304 272 311.253 272 320V384Z" fill="white"/>
</svg>
