<svg width="512" height="512" viewBox="0 0 512 512" fill="none" xmlns="http://www.w3.org/2000/svg">
<path fill-rule="evenodd" clip-rule="evenodd" d="M170.667 405.333H181.333C187.093 405.333 194.987 409.173 198.4 413.867L230.4 456.533C244.48 475.307 267.52 475.307 281.6 456.533L313.6 413.867C317.653 408.533 324.053 405.333 330.667 405.333H341.333C426.667 405.333 469.333 362.667 469.333 277.333V170.667C469.333 85.3334 426.667 42.6667 341.333 42.6667H170.667C85.3332 42.6667 42.6665 85.3334 42.6665 170.667V277.333C42.6665 384 85.3332 405.333 170.667 405.333ZM341.258 213.333C329.476 213.333 319.924 222.885 319.924 234.667C319.924 246.449 329.476 256 341.258 256H341.449C353.231 256 362.783 246.449 362.783 234.667C362.783 222.885 353.231 213.333 341.449 213.333H341.258ZM234.57 234.667C234.57 222.885 244.121 213.333 255.903 213.333H256.095C267.877 213.333 277.428 222.885 277.428 234.667C277.428 246.449 267.877 256 256.095 256H255.903C244.121 256 234.57 246.449 234.57 234.667ZM170.549 213.333C158.767 213.333 149.216 222.885 149.216 234.667C149.216 246.449 158.767 256 170.549 256H170.741C182.523 256 192.074 246.449 192.074 234.667C192.074 222.885 182.523 213.333 170.741 213.333H170.549Z" fill="white"/>
</svg>
