<svg width="256" height="256" viewBox="0 0 256 256" fill="none" xmlns="http://www.w3.org/2000/svg">
<path d="M106.668 40H120.001V90.6667C120.001 95.04 123.628 98.6667 128.001 98.6667C132.375 98.6667 136.001 95.04 136.001 90.6667V40H149.335C153.708 40 157.335 36.3733 157.335 32C157.335 27.6267 153.708 24 149.335 24H106.668C102.295 24 98.668 27.6267 98.668 32C98.668 36.3733 102.295 40 106.668 40Z" fill="white"/>
<path d="M149.335 216H136.001V165.333C136.001 160.96 132.375 157.333 128.001 157.333C123.628 157.333 120.001 160.96 120.001 165.333V216H106.668C102.295 216 98.668 219.627 98.668 224C98.668 228.373 102.295 232 106.668 232H149.335C153.708 232 157.335 228.373 157.335 224C157.335 219.627 153.708 216 149.335 216Z" fill="white"/>
<path d="M30.1866 105.387C31.4666 106.133 32.8532 106.453 34.1332 106.453C36.9066 106.453 39.5732 105.067 41.0666 102.4L47.7866 90.8799L91.7332 116.267C92.9066 117.013 94.2933 117.333 95.6799 117.333C98.4532 117.333 101.12 115.947 102.613 113.28C104.853 109.547 103.467 104.64 99.7332 102.4L55.7866 77.0132L62.3999 65.4932C64.6399 61.6532 63.2532 56.7465 59.5199 54.6132C55.6799 52.3732 50.7732 53.6532 48.6399 57.4932L27.3066 94.3999C25.0666 98.3465 26.3466 103.147 30.1866 105.387Z" fill="white"/>
<path d="M225.814 150.613C221.974 148.373 217.067 149.653 214.934 153.493L208.214 165.013L164.267 139.733C160.427 137.493 155.521 138.88 153.387 142.613C151.147 146.453 152.534 151.36 156.267 153.493L200.107 178.88L193.494 190.4C191.254 194.24 192.641 199.147 196.374 201.28C197.654 202.027 199.041 202.347 200.321 202.347C203.094 202.347 205.761 200.96 207.254 198.293L228.587 161.387C230.934 157.653 229.654 152.853 225.814 150.613Z" fill="white"/>
<path d="M200.213 77.0135L156.266 102.4C152.426 104.64 151.146 109.547 153.386 113.28C154.879 115.84 157.546 117.333 160.319 117.333C161.706 117.333 163.093 117.013 164.266 116.267L208.106 90.8801L214.826 102.4C216.319 104.96 218.986 106.453 221.759 106.453C223.146 106.453 224.533 106.133 225.706 105.387C229.546 103.147 230.826 98.2401 228.586 94.5068L207.253 57.6001C205.013 53.7601 200.106 52.4801 196.373 54.7201C192.533 56.9601 191.253 61.8668 193.493 65.6001L200.213 77.0135Z" fill="white"/>
<path d="M55.7866 178.987L99.6266 153.6C103.467 151.36 104.747 146.453 102.507 142.72C100.267 138.88 95.3599 137.6 91.6266 139.84L47.7866 165.227L41.0666 153.707C38.8266 149.867 33.9199 148.587 30.1866 150.827C26.3466 153.067 25.0666 157.973 27.3066 161.707L48.6399 198.613C50.1332 201.173 52.7999 202.667 55.5732 202.667C56.9599 202.667 58.3466 202.347 59.5199 201.6C63.3599 199.36 64.6399 194.453 62.3999 190.72L55.7866 178.987Z" fill="white"/>
<path d="M165.335 128C165.335 134.827 163.521 141.12 160.321 146.667C153.815 157.867 141.761 165.333 128.001 165.333C114.241 165.333 102.188 157.867 95.6813 146.667C92.4813 141.12 90.668 134.827 90.668 128C90.668 121.173 92.4813 114.88 95.6813 109.333C102.188 98.1334 114.241 90.6667 128.001 90.6667C141.761 90.6667 153.815 98.1334 160.321 109.333C163.521 114.88 165.335 121.173 165.335 128Z" fill="white"/>
</svg>
