<svg width="512" height="512" viewBox="0 0 512 512" fill="none" xmlns="http://www.w3.org/2000/svg">
<path d="M170.667 42.6667V106.667" stroke="white" stroke-width="32" stroke-miterlimit="10" stroke-linecap="round" stroke-linejoin="round"/>
<path d="M341.333 42.6667V106.667" stroke="white" stroke-width="32" stroke-miterlimit="10" stroke-linecap="round" stroke-linejoin="round"/>
<path fill-rule="evenodd" clip-rule="evenodd" d="M64 210L448 210V362.667C448 426.667 416 469.333 341.333 469.333H170.667C96 469.333 64 426.667 64 362.667V210ZM64.0293 178L447.971 178C446.869 115.856 414.696 74.6667 341.333 74.6667H170.667C97.3039 74.6667 65.1307 115.856 64.0293 178ZM234.57 292.267C234.57 280.485 244.122 270.934 255.904 270.934H256.095C267.877 270.934 277.429 280.485 277.429 292.267C277.429 304.049 267.877 313.6 256.095 313.6H255.904C244.122 313.6 234.57 304.049 234.57 292.267ZM176.945 270.934C165.163 270.934 155.612 280.485 155.612 292.267C155.612 304.049 165.163 313.6 176.945 313.6H177.137C188.919 313.6 198.47 304.049 198.47 292.267C198.47 280.485 188.919 270.934 177.137 270.934H176.945ZM176.945 334.934C165.163 334.934 155.612 344.485 155.612 356.267C155.612 368.049 165.163 377.6 176.945 377.6H177.137C188.919 377.6 198.47 368.049 198.47 356.267C198.47 344.485 188.919 334.934 177.137 334.934H176.945Z" fill="white"/>
</svg>
