<svg width="512" height="512" viewBox="0 0 512 512" fill="none" xmlns="http://www.w3.org/2000/svg">
<path d="M259.415 231.893C257.281 231.68 254.721 231.68 252.375 231.893C201.601 230.187 161.281 188.587 161.281 137.387C161.281 85.12 203.521 42.6666 256.001 42.6666C308.268 42.6666 350.721 85.12 350.721 137.387C350.508 188.587 310.188 230.187 259.415 231.893Z" stroke="white" stroke-width="32" stroke-linecap="round" stroke-linejoin="round"/>
<path d="M152.746 310.613C101.119 345.173 101.119 401.493 152.746 435.84C211.413 475.093 307.626 475.093 366.293 435.84C417.919 401.28 417.919 344.96 366.293 310.613C307.839 271.573 211.626 271.573 152.746 310.613Z" stroke="white" stroke-width="32" stroke-linecap="round" stroke-linejoin="round"/>
</svg>
