<svg width="256" height="256" viewBox="0 0 256 256" fill="none" xmlns="http://www.w3.org/2000/svg">
<path d="M92.162 163.793C89.0696 160.7 89.0696 155.571 92.162 152.479L114.789 129.851L86.5051 101.567C82.3568 97.4188 75.5685 97.4188 71.4202 101.567L54.6005 118.387C30.8417 142.146 29.6349 182.272 54.2233 205.05C65.4616 215.383 79.7169 220.587 94.0476 220.587C109.057 220.512 124.067 214.855 135.531 203.39L154.387 184.534C158.536 180.386 158.536 173.598 154.387 169.449L126.103 141.165L103.476 163.793C100.383 166.885 95.2544 166.885 92.162 163.793Z" fill="white"/>
<path d="M161.925 35.344C146.916 35.4194 131.906 41.0763 120.442 52.5408L101.585 71.397C97.4371 75.5453 97.4371 82.3336 101.585 86.4819L129.87 114.766L152.497 92.1388C155.59 89.0464 160.718 89.0464 163.811 92.1388C166.903 95.2312 166.903 100.36 163.811 103.452L141.183 126.08L169.468 154.364C173.616 158.513 180.404 158.513 184.553 154.364L201.372 137.544C225.131 113.786 226.338 73.6597 201.674 50.9569C190.511 40.5483 176.18 35.4194 161.925 35.344Z" fill="white"/>
<path d="M129.87 114.766L114.785 129.851L126.099 141.165L141.184 126.08L129.87 114.766Z" fill="white"/>
</svg>
