<svg width="512" height="512" viewBox="0 0 512 512" fill="none" xmlns="http://www.w3.org/2000/svg">
<path d="M181.333 405.333H170.667C85.3332 405.333 42.6665 384 42.6665 277.333V170.667C42.6665 85.3333 85.3332 42.6666 170.667 42.6666H341.333C426.667 42.6666 469.333 85.3333 469.333 170.667V277.333C469.333 362.667 426.667 405.333 341.333 405.333H330.667C324.053 405.333 317.653 408.533 313.6 413.867L281.6 456.533C267.52 475.307 244.48 475.307 230.4 456.533L198.4 413.867C194.987 409.173 187.093 405.333 181.333 405.333Z" stroke="white" stroke-width="32" stroke-miterlimit="10" stroke-linecap="round" stroke-linejoin="round"/>
<path d="M341.258 234.667H341.45" stroke="white" stroke-width="42.6667" stroke-linecap="round" stroke-linejoin="round"/>
<path d="M255.903 234.667H256.095" stroke="white" stroke-width="42.6667" stroke-linecap="round" stroke-linejoin="round"/>
<path d="M170.549 234.667H170.741" stroke="white" stroke-width="42.6667" stroke-linecap="round" stroke-linejoin="round"/>
</svg>
