<svg width="512" height="512" viewBox="0 0 512 512" fill="none" xmlns="http://www.w3.org/2000/svg">
<path d="M217.58 71.3646L217.586 71.3596L217.592 71.3547C238.743 54.3679 273.098 54.4251 294.659 71.5988C294.663 71.6013 294.666 71.6038 294.669 71.6063L434.315 183.323C441.482 189.186 447.963 198.621 452.201 209.711C456.433 220.788 457.907 232.155 456.52 241.313L429.676 401.956C429.673 401.971 429.671 401.987 429.668 402.002C424.773 430.042 397.224 453.333 369.067 453.333H142.933C114.31 453.333 87.4413 430.644 82.5485 402.233C82.5466 402.222 82.5447 402.212 82.5429 402.201L55.6745 241.416L55.6715 241.398L55.6684 241.38C54.1064 232.164 55.479 220.787 59.6966 209.728C63.9135 198.669 70.4701 189.25 77.8189 183.387L77.8329 183.376L77.8468 183.365L217.58 71.3646ZM256 416C273.583 416 288 401.583 288 384V320C288 302.417 273.583 288 256 288C238.417 288 224 302.417 224 320V384C224 401.583 238.417 416 256 416Z" stroke="white" stroke-width="32"/>
</svg>
